<svg xmlns="http://www.w3.org/2000/svg" width="30" height="1704" viewBox="0 0 30 1704" fill="none">
    <path d="M15 0.666667C7.6362 0.666667 1.66667 6.6362 1.66667 14C1.66667 21.3638 7.6362 27.3333 15 27.3333C22.3638 27.3333 28.3333 21.3638 28.3333 14C28.3333 6.6362 22.3638 0.666667 15 0.666667ZM15 1703.43L29.4338 1689L15 1674.57L0.566243 1689L15 1703.43ZM12.5 14V23.9702H17.5V14H12.5ZM12.5 43.9107L12.5 63.8512H17.5L17.5 43.9107H12.5ZM12.5 83.7917L12.5 103.732H17.5L17.5 83.7917H12.5ZM12.5 123.673V143.613H17.5V123.673H12.5ZM12.5 163.554L12.5 183.494H17.5V163.554H12.5ZM12.5 203.435L12.5 223.375H17.5L17.5 203.435H12.5ZM12.5 243.315V263.256H17.5V243.315H12.5ZM12.5 283.196L12.5 303.137H17.5V283.196H12.5ZM12.5 323.077V343.018H17.5L17.5 323.077H12.5ZM12.5 362.958L12.5 382.899H17.5V362.958H12.5ZM12.5 402.839V422.78H17.5V402.839H12.5ZM12.5 442.72L12.5 462.661H17.5L17.5 442.72H12.5ZM12.5 482.601L12.5 502.542H17.5V482.601H12.5ZM12.5 522.482V542.423H17.5V522.482H12.5ZM12.5 562.363L12.5 582.304H17.5V562.363H12.5ZM12.5 602.244L12.5 622.185H17.5V602.244H12.5ZM12.5 642.125V662.066H17.5V642.125H12.5ZM12.5 682.006L12.5 701.947H17.5V682.006H12.5ZM12.5 721.887L12.5 741.828H17.5V721.887H12.5ZM12.5 761.768V781.709H17.5V761.768H12.5ZM12.5 801.649L12.5 821.59H17.5V801.649H12.5ZM12.5 841.53L12.5 861.471H17.5L17.5 841.53H12.5ZM12.5 881.411V901.352H17.5V881.411H12.5ZM12.5 921.292L12.5 941.233H17.5V921.292H12.5ZM12.5 961.173V981.114H17.5L17.5 961.173H12.5ZM12.5 1001.05L12.5 1020.99H17.5V1001.05H12.5ZM12.5 1040.94V1060.88H17.5V1040.94H12.5ZM12.5 1080.82L12.5 1100.76H17.5L17.5 1080.82H12.5ZM12.5 1120.7L12.5 1140.64H17.5V1120.7H12.5ZM12.5 1160.58V1180.52H17.5V1160.58H12.5ZM12.5 1200.46L12.5 1220.4H17.5L17.5 1200.46H12.5ZM12.5 1240.34L12.5 1260.28H17.5L17.5 1240.34H12.5ZM12.5 1280.22V1300.16H17.5V1280.22H12.5ZM12.5 1320.1L12.5 1340.04H17.5L17.5 1320.1H12.5ZM12.5 1359.98L12.5 1379.92H17.5L17.5 1359.98H12.5ZM12.5 1399.86V1419.8H17.5V1399.86H12.5ZM12.5 1439.74L12.5 1459.68H17.5V1439.74H12.5ZM12.5 1479.62L12.5 1499.56H17.5L17.5 1479.62H12.5ZM12.5 1519.51V1539.45H17.5V1519.51H12.5ZM12.5 1559.39L12.5 1579.33H17.5V1559.39H12.5ZM12.5 1599.27V1619.21H17.5L17.5 1599.27H12.5ZM12.5 1639.15L12.5 1659.09H17.5V1639.15H12.5ZM12.5 1679.03V1689H17.5V1679.03H12.5Z" fill="#C8B3F5"/>
</svg>
